HIERARCHY
ROOT Hips
{
	OFFSET 0.000000 0.000000 0.000000
	CHANNELS 6 Xposition Yposition Zposition Xrotation Yrotation Zrotation
	JOINT LeftUpLeg_virtual
	{
		OFFSET 0.000000 0.000000 0.000000
		CHANNELS 3 Xrotation Yrotation Zrotation
		JOINT LeftUpLeg
		{
			OFFSET 10.205400 -3.823500 0.155100
			CHANNELS 3 Xrotation Yrotation Zrotation
			JOINT LeftLeg
			{
				OFFSET 0.708757 -12.982077 0.567790
				CHANNELS 3 Xrotation Yrotation Zrotation
				JOINT LeftFoot
				{
					OFFSET -0.708756 -10.717838 -2.184338
					CHANNELS 3 Xrotation Yrotation Zrotation
					JOINT LeftToeBase
					{
						OFFSET 0.108149 -7.191104 7.560241
						CHANNELS 3 Xrotation Yrotation Zrotation
						JOINT LeftToe_End
						{
							OFFSET 0.070230 0.081724 4.490308
							CHANNELS 3 Xrotation Yrotation Zrotation
							End Site
							{
								OFFSET 0 0 0
							}
						}
					}
				}
			}
		}
	}
	JOINT RightUpLeg_virtual
	{
		OFFSET 0.000000 0.000000 0.000000
		CHANNELS 3 Xrotation Yrotation Zrotation
		JOINT RightUpLeg
		{
			OFFSET -10.205400 -3.823500 0.005500
			CHANNELS 3 Xrotation Yrotation Zrotation
			JOINT RightLeg
			{
				OFFSET -0.708756 -12.982134 0.610632
				CHANNELS 3 Xrotation Yrotation Zrotation
				JOINT RightFoot
				{
					OFFSET 0.708754 -10.717769 -1.945823
					CHANNELS 3 Xrotation Yrotation Zrotation
					JOINT RightToeBase
					{
						OFFSET -0.108140 -7.191069 7.372968
						CHANNELS 3 Xrotation Yrotation Zrotation
						JOINT RightToe_End
						{
							OFFSET -0.070227 0.081735 4.479403
							CHANNELS 3 Xrotation Yrotation Zrotation
							End Site
							{
								OFFSET 0 0 0
							}
						}
					}
				}
			}
		}
	}
	JOINT Spine_virtual
	{
		OFFSET 0.000000 0.000000 0.000000
		CHANNELS 3 Xrotation Yrotation Zrotation
		JOINT Spine
		{
			OFFSET 0.000000 6.876099 0.125700
			CHANNELS 3 Xrotation Yrotation Zrotation
			JOINT Spine1
			{
				OFFSET 0.000000 5.730043 0.104720
				CHANNELS 3 Xrotation Yrotation Zrotation
				JOINT Spine1_split
				{
					OFFSET 0.000000 5.730043 0.104720
					CHANNELS 3 Xrotation Yrotation Zrotation
					JOINT Spine2
					{
						OFFSET 0.000000 5.730043 0.104720
						CHANNELS 3 Xrotation Yrotation Zrotation
						JOINT Neck_virtual
						{
							OFFSET 0.000000 0.000000 0.000000
							CHANNELS 3 Xrotation Yrotation Zrotation
							JOINT Neck
							{
								OFFSET 0.000000 10.314075 0.188496
								CHANNELS 3 Xrotation Yrotation Zrotation
								JOINT Head
								{
									OFFSET 0.000000 7.643700 -2.377400
									CHANNELS 3 Xrotation Yrotation Zrotation
									JOINT HeadTop_End
									{
										OFFSET 0.000000 43.788605 -13.619600
										CHANNELS 3 Xrotation Yrotation Zrotation
										End Site
										{
											OFFSET 0 0 0
										}
									}
								}
							}
						}
						JOINT LeftShoulder_virtual
						{
							OFFSET 0.000000 0.000000 0.000000
							CHANNELS 3 Xrotation Yrotation Zrotation
							JOINT LeftShoulder
							{
								OFFSET 2.196100 4.412489 0.087492
								CHANNELS 3 Xrotation Yrotation Zrotation
								JOINT LeftShoulder_split
								{
									OFFSET 2.196100 4.412489 0.087492
									CHANNELS 3 Xrotation Yrotation Zrotation
									JOINT LeftArm
									{
										OFFSET 8.771219 -2.981674 -0.026999
										CHANNELS 3 Xrotation Yrotation Zrotation
										JOINT LeftForeArm
										{
											OFFSET 8.512804 0.000000 -0.000000
											CHANNELS 3 Xrotation Yrotation Zrotation
											JOINT LeftHand
											{
												OFFSET 18.484802 0.000000 -0.000000
												CHANNELS 3 Xrotation Yrotation Zrotation
												End Site
												{
													OFFSET 0 0 0
												}
											}
										}
									}
								}
							}
						}
						JOINT RightShoulder_virtual
						{
							OFFSET 0.000000 0.000000 0.000000
							CHANNELS 3 Xrotation Yrotation Zrotation
							JOINT RightShoulder
							{
								OFFSET -2.196100 4.412496 0.070690
								CHANNELS 3 Xrotation Yrotation Zrotation
								JOINT RightShoulder_split
								{
									OFFSET -2.196100 4.412496 0.070690
									CHANNELS 3 Xrotation Yrotation Zrotation
									JOINT RightArm
									{
										OFFSET -8.771282 -2.981682 -0.094208
										CHANNELS 3 Xrotation Yrotation Zrotation
										JOINT RightForeArm
										{
											OFFSET -8.494598 0.000000 0.000000
											CHANNELS 3 Xrotation Yrotation Zrotation
											JOINT RightHand
											{
												OFFSET -18.483803 0.000000 0.000001
												CHANNELS 3 Xrotation Yrotation Zrotation
												End Site
												{
													OFFSET 0 0 0
												}
											}
										}
									}
								}
							}
						}
					}
				}
			}
		}
	}
}
MOTION
Frames: 4
Frame Time: 0.03333333
1.207392 45.922596 1.016151 0.000000 0.000000 0.000000 7.193366 -10.755314 6.896685 -90.002127 -7.287872 18.016501 67.683568 -4.280095 -14.323320 14.571913 -17.427969 10.067196 1.347269 -1.019211 0.344576 0.000000 0.000000 0.000000 5.835351 -2.757088 6.300452 -103.173450 -1.674506 6.038236 118.383557 -6.120181 -11.810378 45.688928 15.895991 10.979642 12.444355 -0.076450 -1.953601 0.000000 0.000000 0.000000 1.287627 -7.704784 9.179929 29.985910 -8.920770 -11.547986 0.628058 -3.570659 -1.957890 3.083522 -0.951276 0.703406 0.000000 0.000000 0.000000 3.108548 -1.928751 -1.106318 -22.041521 4.866786 5.911166 20.352487 1.982853 -18.105646 0.000000 0.000000 0.000000 2.883262 -2.205318 -1.009438 12.898934 -38.937754 32.474828 -4.285517 -1.008305 0.928457 -65.181451 13.781719 19.409154 -48.721194 -70.217015 -32.739108 0.000000 0.000000 0.000000 3.239086 -2.264645 -0.891868 1.513797 8.092351 -16.356898 6.163314 2.538701 -2.869475 -86.719292 -9.721114 -16.235170 -63.615323 67.529971 60.213206 0.000000 0.000000 0.000000 
0.675927 45.666969 3.348152 0.000000 0.000000 0.000000 5.191860 -11.304377 7.091172 -88.993000 -6.673152 19.237950 64.498849 -4.632855 -14.627443 15.865700 -15.969640 12.054889 0.120855 -0.767769 0.422781 0.000000 0.000000 0.000000 4.563610 -5.724249 6.847626 -100.598714 -1.654608 2.644551 115.111555 -6.206245 -10.564499 44.450646 13.879781 11.844535 10.320050 -0.403772 -1.842023 0.000000 0.000000 0.000000 -0.386118 -7.876506 8.448323 29.931122 -8.651393 -11.256558 0.267678 -3.260624 -2.281280 1.891094 -2.344568 0.904270 0.000000 0.000000 0.000000 3.061345 -1.748724 -1.473808 -21.963322 3.852792 7.093219 19.722240 2.911523 -18.955542 0.000000 0.000000 0.000000 2.611315 -1.996518 -1.418457 10.952769 -37.914261 29.796485 -3.635199 -2.175539 1.582197 -63.530704 12.559167 17.975758 -57.354956 -71.754935 -41.403193 0.000000 0.000000 0.000000 3.112356 -2.018502 -1.313448 1.023812 8.229913 -16.609565 7.072199 1.392461 -0.973591 -85.664656 -9.994234 -13.665974 -64.863704 67.206083 61.512151 0.000000 0.000000 0.000000 
0.095159 45.187450 6.614066 0.000000 0.000000 0.000000 3.127208 -13.392381 7.652839 -83.830873 -6.379555 20.493779 56.236369 -3.725000 -15.139167 19.958561 -12.518802 12.466044 -1.172684 -0.347848 0.339680 0.000000 0.000000 0.000000 2.716681 -10.364031 7.681507 -92.449165 -1.632488 -1.586946 106.188562 -6.082762 -9.385418 40.985858 9.417457 11.967496 12.386635 -0.441237 -0.011600 0.000000 0.000000 0.000000 -2.390500 -9.485891 7.878498 28.248862 -7.802783 -10.275334 0.380386 -2.862488 -3.266179 0.924254 -3.591030 1.495542 0.000000 0.000000 0.000000 3.673951 -1.622023 -2.486850 -21.515009 2.803979 9.532414 19.999228 4.542088 -19.819981 0.000000 0.000000 0.000000 3.015547 -1.829493 -2.472728 7.579510 -35.252935 24.815742 -2.838294 -2.906627 1.637581 -59.678996 9.256926 15.351666 -63.360380 -72.495635 -47.226821 0.000000 0.000000 0.000000 3.447679 -1.894716 -2.396994 0.671410 10.423401 -15.918073 6.971469 0.557738 0.251994 -82.943099 -11.263749 -11.350997 -69.097267 67.014435 65.591550 0.000000 0.000000 0.000000 
-0.341413 44.521690 10.306832 0.000000 0.000000 0.000000 0.822634 -16.612323 8.096540 -75.010223 -6.440105 21.607291 44.478960 -1.446008 -15.319358 25.780175 -7.525767 11.053086 -1.149340 0.233834 -0.386653 0.000000 0.000000 0.000000 0.828241 -15.316486 8.393727 -78.977792 -2.432906 -6.105545 92.086263 -5.507286 -8.036074 37.474601 4.005000 11.386357 16.167594 -0.071424 2.410601 0.000000 0.000000 0.000000 -4.896435 -12.483233 7.412824 25.279106 -6.578294 -8.574399 1.055193 -2.448666 -4.676822 1.272248 -4.724453 1.932744 0.000000 0.000000 0.000000 4.633863 -1.582166 -3.854140 -20.592887 1.888128 12.539127 20.912844 6.536807 -20.613128 0.000000 0.000000 0.000000 3.995635 -1.701774 -3.974423 3.629519 -31.197053 18.418010 -1.543372 -2.697827 1.755449 -54.744209 4.219761 12.056656 -63.569841 -72.251490 -47.006253 0.000000 0.000000 0.000000 4.196364 -1.858967 -3.929674 0.401321 14.184366 -14.611238 6.297050 0.444825 1.042994 -79.574429 -13.802829 -10.194557 -75.692559 66.787113 71.875201 0.000000 0.000000 0.000000 
